<?xml version="1.0" standalone="no"?>
<!DOCTYPE svg PUBLIC "-//W3C//DTD SVG 20010904//EN"
 "http://www.w3.org/TR/2001/REC-SVG-20010904/DTD/svg10.dtd">
<svg
 version="1.0"
 xmlns="http://www.w3.org/2000/svg"
 width="600.000000pt"
 height="600.000000pt"
 viewBox="0 0 600.000000 600.000000"
 preserveAspectRatio="xMidYMid meet">
 <g
  transform="translate(0.000000,600.000000) scale(0.100000,-0.100000)"
  fill="#000000"
  stroke="none">
  <path d="M3640 4220 c-252 -16 -506 -95 -691 -215 -39 -25 -69 -48 -67 -50 2
-2 28 2 58 11 77 21 207 29 255 15 56 -15 116 -56 145 -99 21 -29 25 -48 25
-103 0 -60 -3 -71 -31 -106 -97 -120 -208 -129 -584 -44 -261 59 -427 82 -650
88 -334 10 -541 -37 -731 -163 -64 -42 -165 -141 -155 -151 3 -3 34 16 71 42
66 48 148 85 186 85 68 0 138 -85 124 -149 -16 -73 -67 -105 -290 -181 -203
-69 -273 -108 -371 -205 -67 -66 -89 -98 -132 -183 -56 -112 -69 -163 -24 -91
58 91 162 156 324 203 277 80 617 73 871 -18 117 -41 182 -86 222 -151 26 -41
30 -58 30 -116 0 -63 -2 -70 -33 -102 -41 -43 -115 -68 -226 -77 -74 -6 -78
-7 -41 -14 462 -88 508 -104 975 -331 412 -200 544 -252 755 -300 226 -51 516
-51 710 0 436 113 785 489 870 936 17 93 20 303 5 396 -27 164 -102 353 -200
499 -68 102 -223 255 -325 323 -225 148 -493 232 -800 251 -82 5 -152 9 -155
8 -3 0 -57 -4 -120 -8z m631 -800 c140 -26 277 -130 342 -258 69 -139 72 -292
7 -430 -49 -105 -163 -209 -270 -247 -151 -54 -405 -27 -668 71 -87 32 -271
118 -717 334 l-140 68 95 -5 c257 -14 511 78 858 310 232 156 331 187 493 157z"/>
 </g>
</svg>
