<svg height="119.522861" viewBox="0 0 294 42" width="836.660027" xmlns="http://www.w3.org/2000/svg"><path d="m21.91 9.26a51.47 51.47 0 0 1 9.33 1c2.91.54 5.85 1.55 8.83 1.54 2.28 0 4.12-1.59 4.11-3.53s-1.86-3.57-4.18-3.56a13.35 13.35 0 0 0 -3.9.65c.33-.24.66-.48 1-.69a26.14 26.14 0 0 1 15.09-3.67c5.62.26 11.47 2 15.81 5.72a19.89 19.89 0 0 1 6.62 17.82 19.75 19.75 0 0 1 -12.17 15.08 24 24 0 0 1 -14.45.52c-6.21-1.57-11.64-5-17.48-7.53a46.86 46.86 0 0 0 -10.57-2.68h.05a9 9 0 0 0 4.11-.7c1.73-.83 1.72-2.83.82-4.29-1.07-1.74-3.23-2.45-5.09-3a24.36 24.36 0 0 0 -10-.49 15.06 15.06 0 0 0 -6.84 2.49 5.67 5.67 0 0 0 -1.8 2.22c3.08-8.54 9.2-7.58 13-9.92a2.16 2.16 0 0 0 -1.57-3.93 7.24 7.24 0 0 0 -2.92 1.46l-.86.65s3.05-5.16 13.06-5.16z" fill="#07f"/><path d="m24.84 24.73.06.06z" fill="#fff"/><path d="m57.3 14c-4.08 0-5.76 2.57-10.18 5-7.65 4.18-12.2 2.4-12.2 2.62s3.1 1.53 10.7 5.22a27 27 0 0 0 11.73 3.16 8 8 0 1 0 0-16z" fill="#fff"/><g fill="#0e2866"><path d="m87.63 6.31h13.37l.39 16.78h.09l8.52-16.78h13.68l-6.64 31.2h-8.92l4.88-21.51h-.09l-10.23 21.5h-7.14l-1.14-21.5h-.09l-4.31 21.52h-8.89z"/><path d="m144.82 30.92c-.57 1.53-2.27 7.17-12.06 7.17-8 0-11.28-4.5-11.28-10 0-10.4 8-13.81 13.59-13.81 5 0 11.1 2.8 11.1 9.92a14.09 14.09 0 0 1 -.44 3.93h-16.16c0 2.4.83 4.41 3.54 4.41a3.7 3.7 0 0 0 3.41-1.62zm-6.82-7.3a4.3 4.3 0 0 0 .09-.74 3 3 0 0 0 -3.28-3.06c-2.32 0-3.85 1.4-4.5 3.8z"/><path d="m161.95 34.94h-.09a6.82 6.82 0 0 1 -6 3.15c-7.3 0-8.3-6.47-8.3-9.22 0-8.61 4.5-14.6 11.28-14.6 2.62 0 5.07.79 6.55 3.36l2.36-11.32h8.65l-6.47 31.2h-8.48zm1.16-10.18c0-2.53-.87-4.2-3.1-4.2-3.45 0-4.59 4.24-4.59 7.52 0 2.05.92 3.72 3.19 3.72 3.39-.01 4.5-4.33 4.5-7.04z"/><path d="m177.06 14.84h8.65l-4.71 22.68h-8.65zm9.13-2.45h-8.65l1.27-6.07h8.65z"/><path d="m215.1 6.31h24.08l-1.78 8.52h-14.47l-.83 3.89h12.28l-1.53 7.43h-12.28l-2.37 11.37h-9.61z"/><path d="m239.8 14.84h8.65l-4.72 22.68h-8.65z"/><path d="m291.2 24.19c0-7.12-6.07-9.92-11.1-9.92a14.74 14.74 0 0 0 -8.16 2.45 11.84 11.84 0 0 0 -3.86 4.28 15 15 0 0 0 -1.57 7c0 5.51 3.23 10 11.27 10 9.79 0 11.49-5.64 12.06-7.17h-8.3a3.71 3.71 0 0 1 -3.41 1.62c-2.71 0-3.54-2-3.54-4.41h16.17a14.09 14.09 0 0 0 .44-3.85zm-8.2-.57h-7.69c.66-2.4 2.18-3.8 4.5-3.8a3 3 0 0 1 3.28 3.06 4.37 4.37 0 0 1 -.09.74z"/></g><path d="m265.81 22 .92-2a14.42 14.42 0 0 0 -.92 2z" fill="none"/><path d="m269.1 14.79a10.67 10.67 0 0 0 -3.38-.52h-.06a8.52 8.52 0 0 0 -2.5.41 9.55 9.55 0 0 0 -4.56 3.69h-.09l.14-.66.61-2.88h-8.36l-4.72 22.68h8.65l2.23-10.51c1-3.9 2.86-5.24 6.21-5.25a10.1 10.1 0 0 1 2.5.31z" fill="#0e2866"/><path d="m198.49 14.27c-5.55 0-10.23 1.4-11.58 7.43h8.09c.48-1.7 1.7-2.32 3.45-2.32 1.31 0 2.71.39 2.71 2 0 2.8-3.89 2.45-6.34 2.62-6.51.48-11 2.1-11 8.08 0 4.33 3.45 6 7.34 6 2.53 0 5.46-.92 7-2.75l.12-.16-.48 2.35h8.28l3-14.16a23.15 23.15 0 0 0 .33-3.06c.09-5.51-6.81-6.03-10.92-6.03zm1.15 14.63c-.64 2.52-1.86 4.1-4.34 4.1-1.4 0-2.75-.39-2.75-2s1.35-2.4 2.8-2.53a12.54 12.54 0 0 0 4.59-1z" fill="#0e2866"/><path d="m248.93 12.39h-8.65l1.26-6.08h8.66z" fill="#0e2866"/></svg>