<svg xmlns="http://www.w3.org/2000/svg" viewBox="0 0 16 16"><title>Safari SVG Browser Tab Favicon</title><path d="M3.31,11a2.08,2.08,0,0,1-1.12.3A2.16,2.16,0,0,1,.6,7.71,2.12,2.12,0,0,1,2,7a2.25,2.25,0,0,1,0-.38,2.63,2.63,0,0,1,.78-1.87A2.66,2.66,0,0,1,4.59,4a2.47,2.47,0,0,1,1.28.33A3.58,3.58,0,0,1,7.1,3.09,3.37,3.37,0,0,1,11,3.42a3.43,3.43,0,0,1,1.16,2H12a2.31,2.31,0,0,0-.81.13,3.3,3.3,0,0,0-1.1-.78A3.35,3.35,0,0,0,8.74,4.5a3.66,3.66,0,0,0-1.26.22,3.35,3.35,0,0,0-1.08.64,3.15,3.15,0,0,0-.7.81,3.25,3.25,0,0,0-.39,1,3.75,3.75,0,0,0-.68.2A2.31,2.31,0,0,0,3.78,8a2.51,2.51,0,0,0-.5.86,3.12,3.12,0,0,0-.17,1A2.94,2.94,0,0,0,3.31,11Z"/><path d="M14.47,8.52a1.66,1.66,0,0,1,1.47,1.84A1.66,1.66,0,0,1,14.25,12H5.81A2,2,0,0,1,3.76,9.84,2,2,0,0,1,5.88,7.76,2.72,2.72,0,0,1,8,5.26,2.73,2.73,0,0,1,11,6.37a1.53,1.53,0,0,1,1.1-.3,2.76,2.76,0,0,1,1.12.29,2.22,2.22,0,0,1,.93.89A2.56,2.56,0,0,1,14.47,8.52Z"/></svg>