<svg width="118" height="118" xmlns="http://www.w3.org/2000/svg"><defs><linearGradient x1="50%" y1="0%" x2="50%" y2="100%" id="a"><stop stop-color="#C8C6C4" offset="0%"/><stop stop-color="#B3B0AD" offset="100%"/></linearGradient><linearGradient x1="50%" y1="0%" x2="50%" y2="100%" id="b"><stop stop-color="#605E5C" offset="0%"/><stop stop-color="#797775" offset="100%"/></linearGradient><linearGradient x1="50%" y1=".818%" x2="50%" y2="100%" id="c"><stop stop-color="#979593" offset="0%"/><stop stop-color="#8A8886" offset="100%"/></linearGradient><linearGradient x1="50%" y1="98.682%" x2="50%" y2=".345%" id="d"><stop stop-color="#605E5C" offset="0%"/><stop stop-color="#797775" offset="100%"/></linearGradient><linearGradient x1="50%" y1="99.696%" x2="50%" y2=".345%" id="e"><stop stop-color="#605E5C" offset="1.021%"/><stop stop-color="#797775" offset="100%"/></linearGradient><linearGradient x1="50%" y1="98.417%" x2="50%" y2=".345%" id="f"><stop stop-color="#797775" offset="0%"/><stop stop-color="#8A8886" offset="100%"/></linearGradient></defs><g transform="translate(3 19)" fill="none" fill-rule="evenodd"><rect fill="url(#a)" width="112" height="74" rx="4"/><path d="M8 74h12l-.772 2.316a1 1 0 0 1-.949.684H9.721a1 1 0 0 1-.949-.684L8 74zm84 0h12l-.772 2.316a1 1 0 0 1-.949.684h-8.558a1 1 0 0 1-.949-.684L92 74z" fill="url(#b)"/><path d="M98 6H8c-1.104 0-2 .942-2 2.102v57.796C6 67.058 6.896 68 8 68h90c1.104 0 2-.942 2-2.102V8.102C100 6.942 99.104 6 98 6zM8 66h90V8H8v58z" fill="url(#c)"/><path d="M22 19a4.828 4.828 0 0 1 4.813 5.21l-2.255 28.487A2.5 2.5 0 0 1 22.065 55h-.13a2.5 2.5 0 0 1-2.493-2.303L17.187 24.21A4.828 4.828 0 0 1 22 19z" fill="url(#d)"/><rect fill="url(#e)" x="92" y="14" width="14" height="8" rx="1"/><rect fill="url(#e)" x="92" y="52" width="14" height="8" rx="1"/><path d="M56 47c-5.523 0-10-4.477-10-10s4.477-10 10-10 10 4.477 10 10-4.477 10-10 10m0-30c-11.046 0-20 8.954-20 20s8.954 20 20 20 20-8.954 20-20-8.954-20-20-20" fill="url(#f)"/></g></svg>